[center][img]http://0.tqn.com/d/movies/1/0/6/9/Y/harold-kumar-christmas-poster.jpg[/img]
A Very Harold & Kumar 3D Christmas 2011 TS XviD - MiSTERE
 
http://www.imdb.com/title/tt1268799/

Video
ID                               : 0
Format                           : MPEG-4 Visual
Format profile                   : Advanced Simple@L5
Format settings, BVOP            : 2
Format settings, QPel            : No
Format settings, GMC             : No warppoints
Format settings, Matrix          : Default (H.263)
Muxing mode                      : Packed bitstream
Codec ID                         : XVID
Codec ID/Hint                    : XviD
Duration                         : 1h 20mn
Bit rate                         : 2 041 Kbps
Width                            : 720 pixels
Height                           : 304 pixels
Display aspect ratio             : 2.35:1
Frame rate                       : 24.000 fps
Color space                      : YUV
Chroma subsampling               : 4:2:0
Bit depth                        : 8 bits
Scan type                        : Progressive
Compression mode                 : Lossy
Bits/(Pixel*Frame)               : 0.389
Stream size                      : 1.15 GiB (94%)
Writing library                  : XviD 64

Audio
ID                               : 1
Format                           : MPEG Audio
Format version                   : Version 1
Format profile                   : Layer 3
Mode                             : Joint stereo
Mode extension                   : MS Stereo
Codec ID                         : 55
Codec ID/Hint                    : MP3
Duration                         : 1h 20mn
Bit rate mode                    : Constant
Bit rate                         : 128 Kbps
Channel(s)                       : 2 channels
Sampling rate                    : 44.1 KHz
Compression mode                 : Lossy
Stream size                      : 73.9 MiB (6%)
Alignment                        : Split accross interleaves
Interleave, duration             : 42 ms (1.00 video frame)


Cropped Resized Sharpened and Tweaked RGB
Video is in 3D, but not noticeable very often
42 seconds missing in 2 areas, 21 seconds each
nothing important, but take it or leave it

[img]http://pix2links.com/image/BnMUS.png[/img]
[img]http://pix2links.com/image/Y3FI4.png[/img]
[img]http://pix2links.com/image/VkURd.png[/img]
[img]http://pix2links.com/image/MFCAe.png[/img]
[img]http://pix2links.com/image/aiIh.png[/img]
[img]http://pix2links.com/image/Ji9kI.png[/img]
[/center]